<mxfile host="app.diagrams.net" modified="2023-07-24T14:39:46.106Z" agent="Mozilla/5.0 (Windows NT 10.0; Win64; x64) AppleWebKit/537.36 (KHTML, like Gecko) Chrome/115.0.0.0 Safari/537.36" etag="9jaGsoU2luYKqxEXX0Cu" version="21.6.5" type="device">
  <diagram name="Page-1" id="6133507b-19e7-1e82-6fc7-422aa6c4b21f">
    <mxGraphModel dx="5317" dy="3776" grid="1" gridSize="10" guides="1" tooltips="1" connect="1" arrows="1" fold="1" page="1" pageScale="1" pageWidth="1169" pageHeight="827" background="#ffffff" math="0" shadow="0">
      <root>
        <mxCell id="0" />
        <mxCell id="1" parent="0" />
        <mxCell id="72YD6_MLIdH5nznkVh8s-135" value="USER" style="swimlane;html=1;fontStyle=1;align=center;verticalAlign=top;childLayout=stackLayout;horizontal=1;startSize=26;horizontalStack=0;resizeParent=1;resizeLast=0;collapsible=1;marginBottom=0;swimlaneFillColor=none;rounded=0;shadow=0;comic=0;labelBackgroundColor=none;strokeColor=#FFFFFF;strokeWidth=1;fillColor=none;fontFamily=Verdana;fontSize=12;fontColor=#FFFFFF;glass=0;swimlaneLine=1;" parent="1" vertex="1">
          <mxGeometry x="-919" y="-1280" width="199" height="360" as="geometry">
            <mxRectangle x="-660" y="-1328" width="80" height="30" as="alternateBounds" />
          </mxGeometry>
        </mxCell>
        <mxCell id="72YD6_MLIdH5nznkVh8s-106" value="id_user" style="text;strokeColor=none;fillColor=none;align=center;verticalAlign=middle;spacingLeft=4;spacingRight=4;overflow=hidden;rotatable=0;points=[[0,0.5],[1,0.5]];portConstraint=eastwest;labelPosition=center;verticalLabelPosition=middle;fontStyle=4;labelBorderColor=none;labelBackgroundColor=none;fontColor=#FFFFFF;spacingBottom=0;" parent="72YD6_MLIdH5nznkVh8s-135" vertex="1">
          <mxGeometry y="26" width="199" height="26" as="geometry" />
        </mxCell>
        <mxCell id="72YD6_MLIdH5nznkVh8s-113" value="user_name" style="text;strokeColor=none;fillColor=none;align=center;verticalAlign=middle;spacingLeft=4;spacingRight=4;overflow=hidden;rotatable=0;points=[[0,0.5],[1,0.5]];portConstraint=eastwest;labelPosition=center;verticalLabelPosition=middle;fontStyle=0;labelBorderColor=none;labelBackgroundColor=none;fontColor=#FFFFFF;spacingBottom=0;" parent="72YD6_MLIdH5nznkVh8s-135" vertex="1">
          <mxGeometry y="52" width="199" height="26" as="geometry" />
        </mxCell>
        <mxCell id="72YD6_MLIdH5nznkVh8s-112" value="user_surname" style="text;strokeColor=none;fillColor=none;align=center;verticalAlign=middle;spacingLeft=4;spacingRight=4;overflow=hidden;rotatable=0;points=[[0,0.5],[1,0.5]];portConstraint=eastwest;labelPosition=center;verticalLabelPosition=middle;fontStyle=0;labelBorderColor=none;labelBackgroundColor=none;fontColor=#FFFFFF;spacingBottom=0;" parent="72YD6_MLIdH5nznkVh8s-135" vertex="1">
          <mxGeometry y="78" width="199" height="26" as="geometry" />
        </mxCell>
        <mxCell id="72YD6_MLIdH5nznkVh8s-111" value="user_pseudonym" style="text;strokeColor=none;fillColor=none;align=center;verticalAlign=middle;spacingLeft=4;spacingRight=4;overflow=hidden;rotatable=0;points=[[0,0.5],[1,0.5]];portConstraint=eastwest;labelPosition=center;verticalLabelPosition=middle;fontStyle=0;labelBorderColor=none;labelBackgroundColor=none;fontColor=#FFFFFF;spacingBottom=0;" parent="72YD6_MLIdH5nznkVh8s-135" vertex="1">
          <mxGeometry y="104" width="199" height="26" as="geometry" />
        </mxCell>
        <mxCell id="72YD6_MLIdH5nznkVh8s-110" value="user_password" style="text;strokeColor=none;fillColor=none;align=center;verticalAlign=middle;spacingLeft=4;spacingRight=4;overflow=hidden;rotatable=0;points=[[0,0.5],[1,0.5]];portConstraint=eastwest;labelPosition=center;verticalLabelPosition=middle;fontStyle=0;labelBorderColor=none;labelBackgroundColor=none;fontColor=#FFFFFF;spacingBottom=0;" parent="72YD6_MLIdH5nznkVh8s-135" vertex="1">
          <mxGeometry y="130" width="199" height="26" as="geometry" />
        </mxCell>
        <mxCell id="72YD6_MLIdH5nznkVh8s-109" value="user_OAuth42_link" style="text;strokeColor=none;fillColor=none;align=center;verticalAlign=middle;spacingLeft=4;spacingRight=4;overflow=hidden;rotatable=0;points=[[0,0.5],[1,0.5]];portConstraint=eastwest;labelPosition=center;verticalLabelPosition=middle;fontStyle=0;labelBorderColor=none;labelBackgroundColor=none;fontColor=#FFFFFF;spacingBottom=0;" parent="72YD6_MLIdH5nznkVh8s-135" vertex="1">
          <mxGeometry y="156" width="199" height="26" as="geometry" />
        </mxCell>
        <mxCell id="72YD6_MLIdH5nznkVh8s-108" value="user_google_authenticator_link" style="text;strokeColor=none;fillColor=none;align=center;verticalAlign=middle;spacingLeft=4;spacingRight=4;overflow=hidden;rotatable=0;points=[[0,0.5],[1,0.5]];portConstraint=eastwest;labelPosition=center;verticalLabelPosition=middle;fontStyle=0;labelBorderColor=none;labelBackgroundColor=none;fontColor=#FFFFFF;spacingBottom=0;" parent="72YD6_MLIdH5nznkVh8s-135" vertex="1">
          <mxGeometry y="182" width="199" height="26" as="geometry" />
        </mxCell>
        <mxCell id="72YD6_MLIdH5nznkVh8s-107" value="user_last_connection" style="text;strokeColor=none;fillColor=none;align=center;verticalAlign=middle;spacingLeft=4;spacingRight=4;overflow=hidden;rotatable=0;points=[[0,0.5],[1,0.5]];portConstraint=eastwest;labelPosition=center;verticalLabelPosition=middle;fontStyle=0;labelBorderColor=none;labelBackgroundColor=none;fontColor=#FFFFFF;spacingBottom=0;" parent="72YD6_MLIdH5nznkVh8s-135" vertex="1">
          <mxGeometry y="208" width="199" height="26" as="geometry" />
        </mxCell>
        <mxCell id="WUoqmDTYcVCGhtOB4CBN-15" value="user_path_avatar" style="text;strokeColor=none;fillColor=none;align=center;verticalAlign=middle;spacingLeft=4;spacingRight=4;overflow=hidden;rotatable=0;points=[[0,0.5],[1,0.5]];portConstraint=eastwest;labelPosition=center;verticalLabelPosition=middle;fontStyle=0;labelBorderColor=none;labelBackgroundColor=none;fontColor=#FFFFFF;spacingBottom=0;" vertex="1" parent="72YD6_MLIdH5nznkVh8s-135">
          <mxGeometry y="234" width="199" height="26" as="geometry" />
        </mxCell>
        <mxCell id="WUoqmDTYcVCGhtOB4CBN-16" value="user_status" style="text;strokeColor=none;fillColor=none;align=center;verticalAlign=middle;spacingLeft=4;spacingRight=4;overflow=hidden;rotatable=0;points=[[0,0.5],[1,0.5]];portConstraint=eastwest;labelPosition=center;verticalLabelPosition=middle;fontStyle=0;labelBorderColor=none;labelBackgroundColor=none;fontColor=#FFFFFF;spacingBottom=0;" vertex="1" parent="72YD6_MLIdH5nznkVh8s-135">
          <mxGeometry y="260" width="199" height="26" as="geometry" />
        </mxCell>
        <mxCell id="WUoqmDTYcVCGhtOB4CBN-29" value="user_score" style="text;strokeColor=none;fillColor=none;align=center;verticalAlign=middle;spacingLeft=4;spacingRight=4;overflow=hidden;rotatable=0;points=[[0,0.5],[1,0.5]];portConstraint=eastwest;labelPosition=center;verticalLabelPosition=middle;fontStyle=0;labelBorderColor=none;labelBackgroundColor=none;fontColor=#FFFFFF;spacingBottom=0;" vertex="1" parent="72YD6_MLIdH5nznkVh8s-135">
          <mxGeometry y="286" width="199" height="26" as="geometry" />
        </mxCell>
        <mxCell id="WUoqmDTYcVCGhtOB4CBN-26" value="user_helo" style="text;strokeColor=none;fillColor=none;align=center;verticalAlign=middle;spacingLeft=4;spacingRight=4;overflow=hidden;rotatable=0;points=[[0,0.5],[1,0.5]];portConstraint=eastwest;labelPosition=center;verticalLabelPosition=middle;fontStyle=0;labelBorderColor=none;labelBackgroundColor=none;fontColor=#FFFFFF;spacingBottom=0;" vertex="1" parent="72YD6_MLIdH5nznkVh8s-135">
          <mxGeometry y="312" width="199" height="26" as="geometry" />
        </mxCell>
        <mxCell id="72YD6_MLIdH5nznkVh8s-155" value="" style="ellipse;whiteSpace=wrap;html=1;labelBackgroundColor=none;fontColor=#FFFFFF;fillColor=none;strokeColor=#FFFFFF;" parent="1" vertex="1">
          <mxGeometry x="-1140" y="-1180" width="160" height="60" as="geometry" />
        </mxCell>
        <mxCell id="72YD6_MLIdH5nznkVh8s-156" value="" style="endArrow=none;html=1;fontColor=#FFFFFF;entryX=0;entryY=0.5;entryDx=0;entryDy=0;exitX=1;exitY=0.5;exitDx=0;exitDy=0;strokeColor=#FFFFFF;" parent="1" source="72YD6_MLIdH5nznkVh8s-155" target="72YD6_MLIdH5nznkVh8s-155" edge="1">
          <mxGeometry width="50" height="50" relative="1" as="geometry">
            <mxPoint x="-1180.5" y="-1155" as="sourcePoint" />
            <mxPoint x="-1130.5" y="-1205" as="targetPoint" />
          </mxGeometry>
        </mxCell>
        <mxCell id="72YD6_MLIdH5nznkVh8s-157" value="FRIEND" style="text;html=1;strokeColor=none;fillColor=none;align=center;verticalAlign=middle;whiteSpace=wrap;rounded=0;fontStyle=1;fontColor=#FFFFFF;" parent="1" vertex="1">
          <mxGeometry x="-1080" y="-1170" width="40" height="20" as="geometry" />
        </mxCell>
        <mxCell id="72YD6_MLIdH5nznkVh8s-161" value="" style="edgeStyle=orthogonalEdgeStyle;rounded=0;orthogonalLoop=1;jettySize=auto;html=1;endArrow=none;endFill=0;fontColor=#FFFFFF;strokeColor=#FFFFFF;" parent="1" source="72YD6_MLIdH5nznkVh8s-155" target="72YD6_MLIdH5nznkVh8s-135" edge="1">
          <mxGeometry relative="1" as="geometry">
            <mxPoint x="-1480" y="-1059" as="sourcePoint" />
            <mxPoint x="-1200" y="-1250" as="targetPoint" />
            <Array as="points">
              <mxPoint x="-1060" y="-1090" />
            </Array>
          </mxGeometry>
        </mxCell>
        <mxCell id="72YD6_MLIdH5nznkVh8s-163" value="" style="edgeStyle=orthogonalEdgeStyle;rounded=0;orthogonalLoop=1;jettySize=auto;html=1;endArrow=none;endFill=0;fontColor=#FFFFFF;strokeColor=#FFFFFF;" parent="1" source="72YD6_MLIdH5nznkVh8s-155" target="72YD6_MLIdH5nznkVh8s-135" edge="1">
          <mxGeometry relative="1" as="geometry">
            <mxPoint x="-970" y="-1251" as="sourcePoint" />
            <mxPoint x="-900" y="-1251" as="targetPoint" />
            <Array as="points">
              <mxPoint x="-1060" y="-1210" />
            </Array>
          </mxGeometry>
        </mxCell>
        <mxCell id="WUoqmDTYcVCGhtOB4CBN-17" value="MATCH" style="swimlane;html=1;fontStyle=1;align=center;verticalAlign=top;childLayout=stackLayout;horizontal=1;startSize=26;horizontalStack=0;resizeParent=1;resizeLast=0;collapsible=1;marginBottom=0;swimlaneFillColor=none;rounded=0;shadow=0;comic=0;labelBackgroundColor=none;strokeColor=#FFFFFF;strokeWidth=1;fillColor=none;fontFamily=Verdana;fontSize=12;fontColor=#FFFFFF;glass=0;swimlaneLine=1;" vertex="1" parent="1">
          <mxGeometry x="-440" y="-1040" width="200" height="160" as="geometry" />
        </mxCell>
        <mxCell id="WUoqmDTYcVCGhtOB4CBN-18" value="id_match" style="text;strokeColor=none;fillColor=none;align=center;verticalAlign=middle;spacingLeft=4;spacingRight=4;overflow=hidden;rotatable=0;points=[[0,0.5],[1,0.5]];portConstraint=eastwest;labelPosition=center;verticalLabelPosition=middle;fontStyle=4;labelBorderColor=none;labelBackgroundColor=none;fontColor=#FFFFFF;spacingBottom=0;" vertex="1" parent="WUoqmDTYcVCGhtOB4CBN-17">
          <mxGeometry y="26" width="200" height="26" as="geometry" />
        </mxCell>
        <mxCell id="WUoqmDTYcVCGhtOB4CBN-25" value="match_type" style="text;strokeColor=none;fillColor=none;align=center;verticalAlign=middle;spacingLeft=4;spacingRight=4;overflow=hidden;rotatable=0;points=[[0,0.5],[1,0.5]];portConstraint=eastwest;labelPosition=center;verticalLabelPosition=middle;fontStyle=0;labelBorderColor=none;labelBackgroundColor=none;fontColor=#FFFFFF;spacingBottom=0;" vertex="1" parent="WUoqmDTYcVCGhtOB4CBN-17">
          <mxGeometry y="52" width="200" height="26" as="geometry" />
        </mxCell>
        <mxCell id="WUoqmDTYcVCGhtOB4CBN-24" value="match_score" style="text;strokeColor=none;fillColor=none;align=center;verticalAlign=middle;spacingLeft=4;spacingRight=4;overflow=hidden;rotatable=0;points=[[0,0.5],[1,0.5]];portConstraint=eastwest;labelPosition=center;verticalLabelPosition=middle;fontStyle=0;labelBorderColor=none;labelBackgroundColor=none;fontColor=#FFFFFF;spacingBottom=0;" vertex="1" parent="WUoqmDTYcVCGhtOB4CBN-17">
          <mxGeometry y="78" width="200" height="26" as="geometry" />
        </mxCell>
        <mxCell id="WUoqmDTYcVCGhtOB4CBN-30" value="match_status" style="text;strokeColor=none;fillColor=none;align=center;verticalAlign=middle;spacingLeft=4;spacingRight=4;overflow=hidden;rotatable=0;points=[[0,0.5],[1,0.5]];portConstraint=eastwest;labelPosition=center;verticalLabelPosition=middle;fontStyle=0;labelBorderColor=none;labelBackgroundColor=none;fontColor=#FFFFFF;spacingBottom=0;" vertex="1" parent="WUoqmDTYcVCGhtOB4CBN-17">
          <mxGeometry y="104" width="200" height="26" as="geometry" />
        </mxCell>
        <mxCell id="WUoqmDTYcVCGhtOB4CBN-51" value="match_date" style="text;strokeColor=none;fillColor=none;align=center;verticalAlign=middle;spacingLeft=4;spacingRight=4;overflow=hidden;rotatable=0;points=[[0,0.5],[1,0.5]];portConstraint=eastwest;labelPosition=center;verticalLabelPosition=middle;fontStyle=0;labelBorderColor=none;labelBackgroundColor=none;fontColor=#FFFFFF;spacingBottom=0;" vertex="1" parent="WUoqmDTYcVCGhtOB4CBN-17">
          <mxGeometry y="130" width="200" height="26" as="geometry" />
        </mxCell>
        <mxCell id="WUoqmDTYcVCGhtOB4CBN-31" value="" style="ellipse;whiteSpace=wrap;html=1;labelBackgroundColor=none;fontColor=#FFFFFF;fillColor=none;strokeColor=#FFFFFF;" vertex="1" parent="1">
          <mxGeometry x="-660" y="-1040" width="160" height="60" as="geometry" />
        </mxCell>
        <mxCell id="WUoqmDTYcVCGhtOB4CBN-32" value="" style="endArrow=none;html=1;fontColor=#FFFFFF;entryX=0;entryY=0.5;entryDx=0;entryDy=0;exitX=1;exitY=0.5;exitDx=0;exitDy=0;strokeColor=#FFFFFF;" edge="1" parent="1" source="WUoqmDTYcVCGhtOB4CBN-31" target="WUoqmDTYcVCGhtOB4CBN-31">
          <mxGeometry width="50" height="50" relative="1" as="geometry">
            <mxPoint x="-710.5" y="-915" as="sourcePoint" />
            <mxPoint x="-660.5" y="-965" as="targetPoint" />
          </mxGeometry>
        </mxCell>
        <mxCell id="WUoqmDTYcVCGhtOB4CBN-33" value="PLAYED" style="text;html=1;strokeColor=none;fillColor=none;align=center;verticalAlign=middle;whiteSpace=wrap;rounded=0;fontStyle=1;fontColor=#FFFFFF;" vertex="1" parent="1">
          <mxGeometry x="-600" y="-1033" width="40" height="20" as="geometry" />
        </mxCell>
        <mxCell id="WUoqmDTYcVCGhtOB4CBN-34" value="" style="ellipse;whiteSpace=wrap;html=1;labelBackgroundColor=none;fontColor=#FFFFFF;fillColor=none;strokeColor=#FFFFFF;" vertex="1" parent="1">
          <mxGeometry x="-420" y="-1150" width="160" height="60" as="geometry" />
        </mxCell>
        <mxCell id="WUoqmDTYcVCGhtOB4CBN-35" value="" style="endArrow=none;html=1;fontColor=#FFFFFF;entryX=0;entryY=0.5;entryDx=0;entryDy=0;exitX=1;exitY=0.5;exitDx=0;exitDy=0;strokeColor=#FFFFFF;" edge="1" parent="1" source="WUoqmDTYcVCGhtOB4CBN-34" target="WUoqmDTYcVCGhtOB4CBN-34">
          <mxGeometry width="50" height="50" relative="1" as="geometry">
            <mxPoint x="-490.5" y="-1315" as="sourcePoint" />
            <mxPoint x="-440.5" y="-1365" as="targetPoint" />
          </mxGeometry>
        </mxCell>
        <mxCell id="WUoqmDTYcVCGhtOB4CBN-36" value="PLAYED_ON" style="text;html=1;strokeColor=none;fillColor=none;align=center;verticalAlign=middle;whiteSpace=wrap;rounded=0;fontStyle=1;fontColor=#FFFFFF;" vertex="1" parent="1">
          <mxGeometry x="-360" y="-1144" width="40" height="20" as="geometry" />
        </mxCell>
        <mxCell id="WUoqmDTYcVCGhtOB4CBN-37" value="" style="edgeStyle=orthogonalEdgeStyle;rounded=0;orthogonalLoop=1;jettySize=auto;html=1;endArrow=none;endFill=0;fontColor=#FFFFFF;strokeColor=#FFFFFF;" edge="1" parent="1" source="WUoqmDTYcVCGhtOB4CBN-31">
          <mxGeometry relative="1" as="geometry">
            <mxPoint x="-960" y="-1000" as="sourcePoint" />
            <mxPoint x="-720" y="-1010" as="targetPoint" />
            <Array as="points">
              <mxPoint x="-710" y="-1010" />
              <mxPoint x="-710" y="-1010" />
            </Array>
          </mxGeometry>
        </mxCell>
        <mxCell id="WUoqmDTYcVCGhtOB4CBN-38" value="" style="edgeStyle=orthogonalEdgeStyle;rounded=0;orthogonalLoop=1;jettySize=auto;html=1;endArrow=none;endFill=0;fontColor=#FFFFFF;strokeColor=#FFFFFF;" edge="1" parent="1" source="WUoqmDTYcVCGhtOB4CBN-17" target="WUoqmDTYcVCGhtOB4CBN-31">
          <mxGeometry relative="1" as="geometry">
            <mxPoint x="-650" y="-1000" as="sourcePoint" />
            <mxPoint x="-460" y="-1080" as="targetPoint" />
            <Array as="points">
              <mxPoint x="-450" y="-1010" />
              <mxPoint x="-450" y="-1010" />
            </Array>
          </mxGeometry>
        </mxCell>
        <mxCell id="WUoqmDTYcVCGhtOB4CBN-39" value="0,n" style="text;html=1;strokeColor=#FFFFFF;fillColor=none;align=center;verticalAlign=middle;whiteSpace=wrap;rounded=0;fontColor=#FFFFFF;" vertex="1" parent="1">
          <mxGeometry x="-720" y="-1030" width="40" height="20" as="geometry" />
        </mxCell>
        <mxCell id="WUoqmDTYcVCGhtOB4CBN-40" value="2,2" style="text;html=1;strokeColor=none;fillColor=none;align=center;verticalAlign=middle;whiteSpace=wrap;rounded=0;fontColor=#FFFFFF;" vertex="1" parent="1">
          <mxGeometry x="-480" y="-1030" width="40" height="20" as="geometry" />
        </mxCell>
        <mxCell id="WUoqmDTYcVCGhtOB4CBN-41" value="MAPS" style="swimlane;html=1;fontStyle=1;align=center;verticalAlign=top;childLayout=stackLayout;horizontal=1;startSize=26;horizontalStack=0;resizeParent=1;resizeLast=0;collapsible=1;marginBottom=0;swimlaneFillColor=none;rounded=0;shadow=0;comic=0;labelBackgroundColor=none;strokeColor=#FFFFFF;strokeWidth=1;fillColor=none;fontFamily=Verdana;fontSize=12;fontColor=#FFFFFF;glass=0;swimlaneLine=1;" vertex="1" parent="1">
          <mxGeometry x="-440" y="-1360" width="200" height="160" as="geometry" />
        </mxCell>
        <mxCell id="WUoqmDTYcVCGhtOB4CBN-42" value="id_map" style="text;strokeColor=none;fillColor=none;align=center;verticalAlign=middle;spacingLeft=4;spacingRight=4;overflow=hidden;rotatable=0;points=[[0,0.5],[1,0.5]];portConstraint=eastwest;labelPosition=center;verticalLabelPosition=middle;fontStyle=4;labelBorderColor=none;labelBackgroundColor=none;fontColor=#FFFFFF;spacingBottom=0;" vertex="1" parent="WUoqmDTYcVCGhtOB4CBN-41">
          <mxGeometry y="26" width="200" height="26" as="geometry" />
        </mxCell>
        <mxCell id="WUoqmDTYcVCGhtOB4CBN-44" value="map_name" style="text;strokeColor=none;fillColor=none;align=center;verticalAlign=middle;spacingLeft=4;spacingRight=4;overflow=hidden;rotatable=0;points=[[0,0.5],[1,0.5]];portConstraint=eastwest;labelPosition=center;verticalLabelPosition=middle;fontStyle=0;labelBorderColor=none;labelBackgroundColor=none;fontColor=#FFFFFF;spacingBottom=0;" vertex="1" parent="WUoqmDTYcVCGhtOB4CBN-41">
          <mxGeometry y="52" width="200" height="26" as="geometry" />
        </mxCell>
        <mxCell id="WUoqmDTYcVCGhtOB4CBN-43" value="map_file_path" style="text;strokeColor=none;fillColor=none;align=center;verticalAlign=middle;spacingLeft=4;spacingRight=4;overflow=hidden;rotatable=0;points=[[0,0.5],[1,0.5]];portConstraint=eastwest;labelPosition=center;verticalLabelPosition=middle;fontStyle=0;labelBorderColor=none;labelBackgroundColor=none;fontColor=#FFFFFF;spacingBottom=0;" vertex="1" parent="WUoqmDTYcVCGhtOB4CBN-41">
          <mxGeometry y="78" width="200" height="26" as="geometry" />
        </mxCell>
        <mxCell id="WUoqmDTYcVCGhtOB4CBN-70" value="map_description" style="text;strokeColor=none;fillColor=none;align=center;verticalAlign=middle;spacingLeft=4;spacingRight=4;overflow=hidden;rotatable=0;points=[[0,0.5],[1,0.5]];portConstraint=eastwest;labelPosition=center;verticalLabelPosition=middle;fontStyle=0;labelBorderColor=none;labelBackgroundColor=none;fontColor=#FFFFFF;spacingBottom=0;" vertex="1" parent="WUoqmDTYcVCGhtOB4CBN-41">
          <mxGeometry y="104" width="200" height="26" as="geometry" />
        </mxCell>
        <mxCell id="WUoqmDTYcVCGhtOB4CBN-45" value="1,1" style="text;html=1;strokeColor=none;fillColor=none;align=center;verticalAlign=middle;whiteSpace=wrap;rounded=0;fontColor=#FFFFFF;" vertex="1" parent="1">
          <mxGeometry x="-340" y="-1060" width="40" height="20" as="geometry" />
        </mxCell>
        <mxCell id="WUoqmDTYcVCGhtOB4CBN-46" value="0,n" style="text;html=1;strokeColor=none;fillColor=none;align=center;verticalAlign=middle;whiteSpace=wrap;rounded=0;fontColor=#FFFFFF;" vertex="1" parent="1">
          <mxGeometry x="-340" y="-1200" width="40" height="20" as="geometry" />
        </mxCell>
        <mxCell id="WUoqmDTYcVCGhtOB4CBN-49" value="" style="edgeStyle=orthogonalEdgeStyle;rounded=0;orthogonalLoop=1;jettySize=auto;html=1;endArrow=none;endFill=0;fontColor=#FFFFFF;strokeColor=#FFFFFF;" edge="1" parent="1" source="WUoqmDTYcVCGhtOB4CBN-34" target="WUoqmDTYcVCGhtOB4CBN-41">
          <mxGeometry relative="1" as="geometry">
            <mxPoint x="-430" y="-1240" as="sourcePoint" />
            <mxPoint x="-490" y="-1240" as="targetPoint" />
            <Array as="points">
              <mxPoint x="-340" y="-1100" />
              <mxPoint x="-340" y="-1100" />
            </Array>
          </mxGeometry>
        </mxCell>
        <mxCell id="WUoqmDTYcVCGhtOB4CBN-50" value="" style="edgeStyle=orthogonalEdgeStyle;rounded=0;orthogonalLoop=1;jettySize=auto;html=1;endArrow=none;endFill=0;fontColor=#FFFFFF;strokeColor=#FFFFFF;" edge="1" parent="1" source="WUoqmDTYcVCGhtOB4CBN-17" target="WUoqmDTYcVCGhtOB4CBN-34">
          <mxGeometry relative="1" as="geometry">
            <mxPoint x="-350" y="-1140" as="sourcePoint" />
            <mxPoint x="-340" y="-1090" as="targetPoint" />
            <Array as="points">
              <mxPoint x="-340" y="-1020" />
              <mxPoint x="-340" y="-1020" />
            </Array>
          </mxGeometry>
        </mxCell>
        <mxCell id="WUoqmDTYcVCGhtOB4CBN-52" value="POWER_UP" style="swimlane;html=1;fontStyle=1;align=center;verticalAlign=top;childLayout=stackLayout;horizontal=1;startSize=26;horizontalStack=0;resizeParent=1;resizeLast=0;collapsible=1;marginBottom=0;swimlaneFillColor=none;rounded=0;shadow=0;comic=0;labelBackgroundColor=none;strokeColor=#FFFFFF;strokeWidth=1;fillColor=none;fontFamily=Verdana;fontSize=12;fontColor=#FFFFFF;glass=0;swimlaneLine=1;" vertex="1" parent="1">
          <mxGeometry x="-440" y="-760" width="200" height="160" as="geometry" />
        </mxCell>
        <mxCell id="WUoqmDTYcVCGhtOB4CBN-53" value="id_power_up" style="text;strokeColor=none;fillColor=none;align=center;verticalAlign=middle;spacingLeft=4;spacingRight=4;overflow=hidden;rotatable=0;points=[[0,0.5],[1,0.5]];portConstraint=eastwest;labelPosition=center;verticalLabelPosition=middle;fontStyle=4;labelBorderColor=none;labelBackgroundColor=none;fontColor=#FFFFFF;spacingBottom=0;" vertex="1" parent="WUoqmDTYcVCGhtOB4CBN-52">
          <mxGeometry y="26" width="200" height="26" as="geometry" />
        </mxCell>
        <mxCell id="WUoqmDTYcVCGhtOB4CBN-54" value="power_up_description" style="text;strokeColor=none;fillColor=none;align=center;verticalAlign=middle;spacingLeft=4;spacingRight=4;overflow=hidden;rotatable=0;points=[[0,0.5],[1,0.5]];portConstraint=eastwest;labelPosition=center;verticalLabelPosition=middle;fontStyle=0;labelBorderColor=none;labelBackgroundColor=none;fontColor=#FFFFFF;spacingBottom=0;" vertex="1" parent="WUoqmDTYcVCGhtOB4CBN-52">
          <mxGeometry y="52" width="200" height="26" as="geometry" />
        </mxCell>
        <mxCell id="WUoqmDTYcVCGhtOB4CBN-71" value="power_up_file_path" style="text;strokeColor=none;fillColor=none;align=center;verticalAlign=middle;spacingLeft=4;spacingRight=4;overflow=hidden;rotatable=0;points=[[0,0.5],[1,0.5]];portConstraint=eastwest;labelPosition=center;verticalLabelPosition=middle;fontStyle=0;labelBorderColor=none;labelBackgroundColor=none;fontColor=#FFFFFF;spacingBottom=0;" vertex="1" parent="WUoqmDTYcVCGhtOB4CBN-52">
          <mxGeometry y="78" width="200" height="26" as="geometry" />
        </mxCell>
        <mxCell id="WUoqmDTYcVCGhtOB4CBN-55" value="power_up_icon" style="text;strokeColor=none;fillColor=none;align=center;verticalAlign=middle;spacingLeft=4;spacingRight=4;overflow=hidden;rotatable=0;points=[[0,0.5],[1,0.5]];portConstraint=eastwest;labelPosition=center;verticalLabelPosition=middle;fontStyle=0;labelBorderColor=none;labelBackgroundColor=none;fontColor=#FFFFFF;spacingBottom=0;" vertex="1" parent="WUoqmDTYcVCGhtOB4CBN-52">
          <mxGeometry y="104" width="200" height="26" as="geometry" />
        </mxCell>
        <mxCell id="WUoqmDTYcVCGhtOB4CBN-63" value="" style="ellipse;whiteSpace=wrap;html=1;labelBackgroundColor=none;fontColor=#FFFFFF;fillColor=none;strokeColor=#FFFFFF;" vertex="1" parent="1">
          <mxGeometry x="-420" y="-850" width="160" height="60" as="geometry" />
        </mxCell>
        <mxCell id="WUoqmDTYcVCGhtOB4CBN-64" value="" style="endArrow=none;html=1;fontColor=#FFFFFF;entryX=0;entryY=0.5;entryDx=0;entryDy=0;exitX=1;exitY=0.5;exitDx=0;exitDy=0;strokeColor=#FFFFFF;" edge="1" parent="1" source="WUoqmDTYcVCGhtOB4CBN-63" target="WUoqmDTYcVCGhtOB4CBN-63">
          <mxGeometry width="50" height="50" relative="1" as="geometry">
            <mxPoint x="-470.5" y="-485" as="sourcePoint" />
            <mxPoint x="-420.5" y="-535" as="targetPoint" />
          </mxGeometry>
        </mxCell>
        <mxCell id="WUoqmDTYcVCGhtOB4CBN-65" value="POWER_UP_SELECTED" style="text;html=1;strokeColor=none;fillColor=none;align=center;verticalAlign=middle;whiteSpace=wrap;rounded=0;fontStyle=1;fontColor=#FFFFFF;" vertex="1" parent="1">
          <mxGeometry x="-360" y="-840" width="40" height="20" as="geometry" />
        </mxCell>
        <mxCell id="WUoqmDTYcVCGhtOB4CBN-66" value="" style="edgeStyle=orthogonalEdgeStyle;rounded=0;orthogonalLoop=1;jettySize=auto;html=1;endArrow=none;endFill=0;fontColor=#FFFFFF;strokeColor=#FFFFFF;" edge="1" parent="1" source="WUoqmDTYcVCGhtOB4CBN-17" target="WUoqmDTYcVCGhtOB4CBN-63">
          <mxGeometry relative="1" as="geometry">
            <mxPoint x="-500" y="-507" as="sourcePoint" />
            <mxPoint x="-560" y="-507" as="targetPoint" />
            <Array as="points" />
          </mxGeometry>
        </mxCell>
        <mxCell id="WUoqmDTYcVCGhtOB4CBN-67" value="" style="edgeStyle=orthogonalEdgeStyle;rounded=0;orthogonalLoop=1;jettySize=auto;html=1;endArrow=none;endFill=0;fontColor=#FFFFFF;strokeColor=#FFFFFF;" edge="1" parent="1" source="WUoqmDTYcVCGhtOB4CBN-52" target="WUoqmDTYcVCGhtOB4CBN-63">
          <mxGeometry relative="1" as="geometry">
            <mxPoint x="-330" y="-870" as="sourcePoint" />
            <mxPoint x="-330" y="-820" as="targetPoint" />
            <Array as="points">
              <mxPoint x="-340" y="-800" />
            </Array>
          </mxGeometry>
        </mxCell>
        <mxCell id="WUoqmDTYcVCGhtOB4CBN-72" value="CHANNEL" style="swimlane;html=1;fontStyle=1;align=center;verticalAlign=top;childLayout=stackLayout;horizontal=1;startSize=26;horizontalStack=0;resizeParent=1;resizeLast=0;collapsible=1;marginBottom=0;swimlaneFillColor=none;rounded=0;shadow=0;comic=0;labelBackgroundColor=none;strokeColor=#FFFFFF;strokeWidth=1;fillColor=none;fontFamily=Verdana;fontSize=12;fontColor=#FFFFFF;glass=0;swimlaneLine=1;" vertex="1" parent="1">
          <mxGeometry x="-920" y="-1640" width="200" height="160" as="geometry" />
        </mxCell>
        <mxCell id="WUoqmDTYcVCGhtOB4CBN-73" value="id_channel" style="text;strokeColor=none;fillColor=none;align=center;verticalAlign=middle;spacingLeft=4;spacingRight=4;overflow=hidden;rotatable=0;points=[[0,0.5],[1,0.5]];portConstraint=eastwest;labelPosition=center;verticalLabelPosition=middle;fontStyle=4;labelBorderColor=none;labelBackgroundColor=none;fontColor=#FFFFFF;spacingBottom=0;" vertex="1" parent="WUoqmDTYcVCGhtOB4CBN-72">
          <mxGeometry y="26" width="200" height="26" as="geometry" />
        </mxCell>
        <mxCell id="WUoqmDTYcVCGhtOB4CBN-74" value="channel_status" style="text;strokeColor=none;fillColor=none;align=center;verticalAlign=middle;spacingLeft=4;spacingRight=4;overflow=hidden;rotatable=0;points=[[0,0.5],[1,0.5]];portConstraint=eastwest;labelPosition=center;verticalLabelPosition=middle;fontStyle=0;labelBorderColor=none;labelBackgroundColor=none;fontColor=#FFFFFF;spacingBottom=0;" vertex="1" parent="WUoqmDTYcVCGhtOB4CBN-72">
          <mxGeometry y="52" width="200" height="28" as="geometry" />
        </mxCell>
        <mxCell id="WUoqmDTYcVCGhtOB4CBN-76" value="channel_password" style="text;strokeColor=none;fillColor=none;align=center;verticalAlign=middle;spacingLeft=4;spacingRight=4;overflow=hidden;rotatable=0;points=[[0,0.5],[1,0.5]];portConstraint=eastwest;labelPosition=center;verticalLabelPosition=middle;fontStyle=0;labelBorderColor=none;labelBackgroundColor=none;fontColor=#FFFFFF;spacingBottom=0;" vertex="1" parent="WUoqmDTYcVCGhtOB4CBN-72">
          <mxGeometry y="80" width="200" height="26" as="geometry" />
        </mxCell>
        <mxCell id="WUoqmDTYcVCGhtOB4CBN-111" value="channel_date_creation" style="text;strokeColor=none;fillColor=none;align=center;verticalAlign=middle;spacingLeft=4;spacingRight=4;overflow=hidden;rotatable=0;points=[[0,0.5],[1,0.5]];portConstraint=eastwest;labelPosition=center;verticalLabelPosition=middle;fontStyle=0;labelBorderColor=none;labelBackgroundColor=none;fontColor=#FFFFFF;spacingBottom=0;" vertex="1" parent="WUoqmDTYcVCGhtOB4CBN-72">
          <mxGeometry y="106" width="200" height="26" as="geometry" />
        </mxCell>
        <mxCell id="WUoqmDTYcVCGhtOB4CBN-84" value="" style="ellipse;whiteSpace=wrap;html=1;labelBackgroundColor=none;fontColor=#FFFFFF;fillColor=none;strokeColor=#FFFFFF;" vertex="1" parent="1">
          <mxGeometry x="-1140" y="-1040" width="160" height="60" as="geometry" />
        </mxCell>
        <mxCell id="WUoqmDTYcVCGhtOB4CBN-85" value="" style="endArrow=none;html=1;fontColor=#FFFFFF;entryX=0;entryY=0.5;entryDx=0;entryDy=0;exitX=1;exitY=0.5;exitDx=0;exitDy=0;strokeColor=#FFFFFF;" edge="1" parent="1" source="WUoqmDTYcVCGhtOB4CBN-84" target="WUoqmDTYcVCGhtOB4CBN-84">
          <mxGeometry width="50" height="50" relative="1" as="geometry">
            <mxPoint x="-1170.5" y="-985" as="sourcePoint" />
            <mxPoint x="-1120.5" y="-1035" as="targetPoint" />
          </mxGeometry>
        </mxCell>
        <mxCell id="WUoqmDTYcVCGhtOB4CBN-86" value="BLOCKED" style="text;html=1;strokeColor=none;fillColor=none;align=center;verticalAlign=middle;whiteSpace=wrap;rounded=0;fontStyle=1;fontColor=#FFFFFF;" vertex="1" parent="1">
          <mxGeometry x="-1080" y="-1030" width="40" height="20" as="geometry" />
        </mxCell>
        <mxCell id="WUoqmDTYcVCGhtOB4CBN-88" value="" style="edgeStyle=orthogonalEdgeStyle;rounded=0;orthogonalLoop=1;jettySize=auto;html=1;endArrow=none;endFill=0;fontColor=#FFFFFF;strokeColor=#FFFFFF;" edge="1" parent="1" source="WUoqmDTYcVCGhtOB4CBN-84" target="72YD6_MLIdH5nznkVh8s-135">
          <mxGeometry relative="1" as="geometry">
            <mxPoint x="-960" y="-1081" as="sourcePoint" />
            <mxPoint x="-909" y="-1080" as="targetPoint" />
            <Array as="points">
              <mxPoint x="-1060" y="-950" />
            </Array>
          </mxGeometry>
        </mxCell>
        <mxCell id="WUoqmDTYcVCGhtOB4CBN-96" value="CHANNEL_MEMBER_STATUS" style="swimlane;html=1;fontStyle=1;align=center;verticalAlign=top;childLayout=stackLayout;horizontal=1;startSize=26;horizontalStack=0;resizeParent=1;resizeLast=0;collapsible=1;marginBottom=0;swimlaneFillColor=none;rounded=0;shadow=0;comic=0;labelBackgroundColor=none;strokeColor=#FFFFFF;strokeWidth=1;fillColor=none;fontFamily=Verdana;fontSize=12;fontColor=#FFFFFF;glass=0;swimlaneLine=1;" vertex="1" parent="1">
          <mxGeometry x="-1160" y="-1440" width="200" height="120" as="geometry" />
        </mxCell>
        <mxCell id="WUoqmDTYcVCGhtOB4CBN-97" value="id_channel_member_status" style="text;strokeColor=none;fillColor=none;align=center;verticalAlign=middle;spacingLeft=4;spacingRight=4;overflow=hidden;rotatable=0;points=[[0,0.5],[1,0.5]];portConstraint=eastwest;labelPosition=center;verticalLabelPosition=middle;fontStyle=4;labelBorderColor=none;labelBackgroundColor=none;fontColor=#FFFFFF;spacingBottom=0;" vertex="1" parent="WUoqmDTYcVCGhtOB4CBN-96">
          <mxGeometry y="26" width="200" height="26" as="geometry" />
        </mxCell>
        <mxCell id="WUoqmDTYcVCGhtOB4CBN-103" value="channel_member_status_name" style="text;strokeColor=none;fillColor=none;align=center;verticalAlign=middle;spacingLeft=4;spacingRight=4;overflow=hidden;rotatable=0;points=[[0,0.5],[1,0.5]];portConstraint=eastwest;labelPosition=center;verticalLabelPosition=middle;fontStyle=0;labelBorderColor=none;labelBackgroundColor=none;fontColor=#FFFFFF;spacingBottom=0;" vertex="1" parent="WUoqmDTYcVCGhtOB4CBN-96">
          <mxGeometry y="52" width="200" height="28" as="geometry" />
        </mxCell>
        <mxCell id="WUoqmDTYcVCGhtOB4CBN-99" value="channel_member_status_description" style="text;strokeColor=none;fillColor=none;align=center;verticalAlign=middle;spacingLeft=4;spacingRight=4;overflow=hidden;rotatable=0;points=[[0,0.5],[1,0.5]];portConstraint=eastwest;labelPosition=center;verticalLabelPosition=middle;fontStyle=0;labelBorderColor=none;labelBackgroundColor=none;fontColor=#FFFFFF;spacingBottom=0;" vertex="1" parent="WUoqmDTYcVCGhtOB4CBN-96">
          <mxGeometry y="80" width="200" height="28" as="geometry" />
        </mxCell>
        <mxCell id="WUoqmDTYcVCGhtOB4CBN-104" value="" style="edgeStyle=orthogonalEdgeStyle;rounded=0;orthogonalLoop=1;jettySize=auto;html=1;endArrow=none;endFill=0;fontColor=#FFFFFF;strokeColor=#FFFFFF;" edge="1" parent="1" source="72YD6_MLIdH5nznkVh8s-135" target="WUoqmDTYcVCGhtOB4CBN-84">
          <mxGeometry relative="1" as="geometry">
            <mxPoint x="-1050" y="-1210" as="sourcePoint" />
            <mxPoint x="-909" y="-1190" as="targetPoint" />
            <Array as="points">
              <mxPoint x="-1060" y="-1070" />
            </Array>
          </mxGeometry>
        </mxCell>
        <mxCell id="WUoqmDTYcVCGhtOB4CBN-110" value="" style="edgeStyle=orthogonalEdgeStyle;rounded=0;orthogonalLoop=1;jettySize=auto;html=1;endArrow=none;endFill=0;fontColor=#FFFFFF;strokeColor=#FFFFFF;" edge="1" parent="1" source="WUoqmDTYcVCGhtOB4CBN-63" target="72YD6_MLIdH5nznkVh8s-135">
          <mxGeometry relative="1" as="geometry">
            <mxPoint x="-650" y="-1000" as="sourcePoint" />
            <mxPoint x="-720" y="-800" as="targetPoint" />
            <Array as="points">
              <mxPoint x="-580" y="-820" />
              <mxPoint x="-580" y="-940" />
            </Array>
          </mxGeometry>
        </mxCell>
        <mxCell id="WUoqmDTYcVCGhtOB4CBN-114" value="" style="ellipse;whiteSpace=wrap;html=1;labelBackgroundColor=none;fontColor=#FFFFFF;fillColor=none;strokeColor=#FFFFFF;" vertex="1" parent="1">
          <mxGeometry x="-660" y="-1190" width="160" height="80" as="geometry" />
        </mxCell>
        <mxCell id="WUoqmDTYcVCGhtOB4CBN-115" value="" style="endArrow=none;html=1;fontColor=#FFFFFF;entryX=0;entryY=0.5;entryDx=0;entryDy=0;exitX=1;exitY=0.5;exitDx=0;exitDy=0;strokeColor=#FFFFFF;" edge="1" parent="1" source="WUoqmDTYcVCGhtOB4CBN-114" target="WUoqmDTYcVCGhtOB4CBN-114">
          <mxGeometry width="50" height="50" relative="1" as="geometry">
            <mxPoint x="-681.5" y="-1215" as="sourcePoint" />
            <mxPoint x="-631.5" y="-1265" as="targetPoint" />
          </mxGeometry>
        </mxCell>
        <mxCell id="WUoqmDTYcVCGhtOB4CBN-116" value="PRIVATE_MESSAGE" style="text;html=1;strokeColor=none;fillColor=none;align=center;verticalAlign=middle;whiteSpace=wrap;rounded=0;fontStyle=1;fontColor=#FFFFFF;" vertex="1" parent="1">
          <mxGeometry x="-600" y="-1175" width="40" height="20" as="geometry" />
        </mxCell>
        <mxCell id="WUoqmDTYcVCGhtOB4CBN-124" value="" style="ellipse;whiteSpace=wrap;html=1;labelBackgroundColor=none;fontColor=#FFFFFF;fillColor=none;strokeColor=#FFFFFF;" vertex="1" parent="1">
          <mxGeometry x="-899.5" y="-1390" width="160" height="60" as="geometry" />
        </mxCell>
        <mxCell id="WUoqmDTYcVCGhtOB4CBN-125" value="" style="endArrow=none;html=1;fontColor=#FFFFFF;entryX=0;entryY=0.5;entryDx=0;entryDy=0;exitX=1;exitY=0.5;exitDx=0;exitDy=0;strokeColor=#FFFFFF;" edge="1" parent="1" source="WUoqmDTYcVCGhtOB4CBN-124" target="WUoqmDTYcVCGhtOB4CBN-124">
          <mxGeometry width="50" height="50" relative="1" as="geometry">
            <mxPoint x="-921" y="-1425" as="sourcePoint" />
            <mxPoint x="-871" y="-1475" as="targetPoint" />
          </mxGeometry>
        </mxCell>
        <mxCell id="WUoqmDTYcVCGhtOB4CBN-126" value="IS_MEMBER_OF" style="text;html=1;strokeColor=none;fillColor=none;align=center;verticalAlign=middle;whiteSpace=wrap;rounded=0;fontStyle=1;fontColor=#FFFFFF;" vertex="1" parent="1">
          <mxGeometry x="-839.5" y="-1380" width="40" height="20" as="geometry" />
        </mxCell>
        <mxCell id="WUoqmDTYcVCGhtOB4CBN-128" value="" style="edgeStyle=orthogonalEdgeStyle;rounded=0;orthogonalLoop=1;jettySize=auto;html=1;endArrow=none;endFill=0;fontColor=#FFFFFF;strokeColor=#FFFFFF;" edge="1" parent="1" source="WUoqmDTYcVCGhtOB4CBN-124" target="72YD6_MLIdH5nznkVh8s-135">
          <mxGeometry relative="1" as="geometry">
            <mxPoint x="-570" y="-1170" as="sourcePoint" />
            <mxPoint x="-710" y="-1200" as="targetPoint" />
            <Array as="points">
              <mxPoint x="-819" y="-1300" />
              <mxPoint x="-819" y="-1300" />
            </Array>
          </mxGeometry>
        </mxCell>
        <mxCell id="WUoqmDTYcVCGhtOB4CBN-129" value="" style="edgeStyle=orthogonalEdgeStyle;rounded=0;orthogonalLoop=1;jettySize=auto;html=1;endArrow=none;endFill=0;fontColor=#FFFFFF;strokeColor=#FFFFFF;" edge="1" parent="1" source="WUoqmDTYcVCGhtOB4CBN-96" target="WUoqmDTYcVCGhtOB4CBN-124">
          <mxGeometry relative="1" as="geometry">
            <mxPoint x="-960" y="-1450" as="sourcePoint" />
            <mxPoint x="-809" y="-1338" as="targetPoint" />
            <Array as="points">
              <mxPoint x="-920" y="-1360" />
              <mxPoint x="-920" y="-1360" />
            </Array>
          </mxGeometry>
        </mxCell>
        <mxCell id="WUoqmDTYcVCGhtOB4CBN-130" value="" style="edgeStyle=orthogonalEdgeStyle;rounded=0;orthogonalLoop=1;jettySize=auto;html=1;endArrow=none;endFill=0;fontColor=#FFFFFF;strokeColor=#FFFFFF;" edge="1" parent="1" source="WUoqmDTYcVCGhtOB4CBN-124" target="WUoqmDTYcVCGhtOB4CBN-72">
          <mxGeometry relative="1" as="geometry">
            <mxPoint x="-950" y="-1350" as="sourcePoint" />
            <mxPoint x="-889" y="-1350" as="targetPoint" />
            <Array as="points">
              <mxPoint x="-820" y="-1360" />
            </Array>
          </mxGeometry>
        </mxCell>
        <mxCell id="WUoqmDTYcVCGhtOB4CBN-137" value="0,n" style="text;html=1;strokeColor=none;fillColor=none;align=center;verticalAlign=middle;whiteSpace=wrap;rounded=0;fontColor=#FFFFFF;" vertex="1" parent="1">
          <mxGeometry x="-959" y="-1210" width="40" height="20" as="geometry" />
        </mxCell>
        <mxCell id="WUoqmDTYcVCGhtOB4CBN-138" value="0,n" style="text;html=1;strokeColor=none;fillColor=none;align=center;verticalAlign=middle;whiteSpace=wrap;rounded=0;fontColor=#FFFFFF;" vertex="1" parent="1">
          <mxGeometry x="-959" y="-1110" width="40" height="20" as="geometry" />
        </mxCell>
        <mxCell id="WUoqmDTYcVCGhtOB4CBN-139" value="0,n" style="text;html=1;strokeColor=none;fillColor=none;align=center;verticalAlign=middle;whiteSpace=wrap;rounded=0;fontColor=#FFFFFF;" vertex="1" parent="1">
          <mxGeometry x="-960" y="-1070" width="40" height="20" as="geometry" />
        </mxCell>
        <mxCell id="WUoqmDTYcVCGhtOB4CBN-140" value="0,n" style="text;html=1;strokeColor=none;fillColor=none;align=center;verticalAlign=middle;whiteSpace=wrap;rounded=0;fontColor=#FFFFFF;" vertex="1" parent="1">
          <mxGeometry x="-959" y="-970" width="40" height="20" as="geometry" />
        </mxCell>
        <mxCell id="WUoqmDTYcVCGhtOB4CBN-141" value="0,n" style="text;html=1;strokeColor=none;fillColor=none;align=center;verticalAlign=middle;whiteSpace=wrap;rounded=0;fontColor=#FFFFFF;" vertex="1" parent="1">
          <mxGeometry x="-720" y="-1110" width="40" height="20" as="geometry" />
        </mxCell>
        <mxCell id="WUoqmDTYcVCGhtOB4CBN-142" value="0,n" style="text;html=1;strokeColor=none;fillColor=none;align=center;verticalAlign=middle;whiteSpace=wrap;rounded=0;fontColor=#FFFFFF;" vertex="1" parent="1">
          <mxGeometry x="-720" y="-1210" width="40" height="20" as="geometry" />
        </mxCell>
        <mxCell id="WUoqmDTYcVCGhtOB4CBN-143" value="0,n" style="text;html=1;strokeColor=none;fillColor=none;align=center;verticalAlign=middle;whiteSpace=wrap;rounded=0;fontColor=#FFFFFF;" vertex="1" parent="1">
          <mxGeometry x="-720" y="-1270" width="40" height="20" as="geometry" />
        </mxCell>
        <mxCell id="WUoqmDTYcVCGhtOB4CBN-144" value="0,n" style="text;html=1;strokeColor=none;fillColor=none;align=center;verticalAlign=middle;whiteSpace=wrap;rounded=0;fontColor=#FFFFFF;" vertex="1" parent="1">
          <mxGeometry x="-860" y="-1300" width="40" height="20" as="geometry" />
        </mxCell>
        <mxCell id="WUoqmDTYcVCGhtOB4CBN-145" value="0,n" style="text;html=1;strokeColor=none;fillColor=none;align=center;verticalAlign=middle;whiteSpace=wrap;rounded=0;fontColor=#FFFFFF;" vertex="1" parent="1">
          <mxGeometry x="-959" y="-1380" width="40" height="20" as="geometry" />
        </mxCell>
        <mxCell id="WUoqmDTYcVCGhtOB4CBN-146" value="1,n" style="text;html=1;strokeColor=none;fillColor=none;align=center;verticalAlign=middle;whiteSpace=wrap;rounded=0;fontColor=#FFFFFF;" vertex="1" parent="1">
          <mxGeometry x="-860" y="-1480" width="40" height="20" as="geometry" />
        </mxCell>
        <mxCell id="WUoqmDTYcVCGhtOB4CBN-150" value="message_content" style="text;strokeColor=none;fillColor=none;align=center;verticalAlign=middle;spacingLeft=4;spacingRight=4;overflow=hidden;rotatable=0;points=[[0,0.5],[1,0.5]];portConstraint=eastwest;labelPosition=center;verticalLabelPosition=middle;fontStyle=0;labelBorderColor=none;labelBackgroundColor=none;fontColor=#FFFFFF;spacingBottom=0;" vertex="1" parent="1">
          <mxGeometry x="-655" y="-1150" width="150" height="26" as="geometry" />
        </mxCell>
        <mxCell id="WUoqmDTYcVCGhtOB4CBN-151" value="date" style="text;strokeColor=none;fillColor=none;align=center;verticalAlign=middle;spacingLeft=4;spacingRight=4;overflow=hidden;rotatable=0;points=[[0,0.5],[1,0.5]];portConstraint=eastwest;labelPosition=center;verticalLabelPosition=middle;fontStyle=0;labelBorderColor=none;labelBackgroundColor=none;fontColor=#FFFFFF;spacingBottom=0;" vertex="1" parent="1">
          <mxGeometry x="-655" y="-1140" width="150" height="30" as="geometry" />
        </mxCell>
        <mxCell id="WUoqmDTYcVCGhtOB4CBN-153" value="" style="edgeStyle=orthogonalEdgeStyle;rounded=0;orthogonalLoop=1;jettySize=auto;html=1;endArrow=none;endFill=0;fontColor=#FFFFFF;strokeColor=#FFFFFF;" edge="1" parent="1" source="WUoqmDTYcVCGhtOB4CBN-114" target="72YD6_MLIdH5nznkVh8s-135">
          <mxGeometry relative="1" as="geometry">
            <mxPoint x="-360" y="-1260" as="sourcePoint" />
            <mxPoint x="-909" y="-1200" as="targetPoint" />
            <Array as="points">
              <mxPoint x="-580" y="-1210" />
            </Array>
          </mxGeometry>
        </mxCell>
        <mxCell id="WUoqmDTYcVCGhtOB4CBN-154" value="" style="edgeStyle=orthogonalEdgeStyle;rounded=0;orthogonalLoop=1;jettySize=auto;html=1;endArrow=none;endFill=0;fontColor=#FFFFFF;strokeColor=#FFFFFF;" edge="1" parent="1" source="WUoqmDTYcVCGhtOB4CBN-114" target="72YD6_MLIdH5nznkVh8s-135">
          <mxGeometry relative="1" as="geometry">
            <mxPoint x="-570" y="-1180" as="sourcePoint" />
            <mxPoint x="-710" y="-1200" as="targetPoint" />
            <Array as="points">
              <mxPoint x="-580" y="-1090" />
            </Array>
          </mxGeometry>
        </mxCell>
        <mxCell id="WUoqmDTYcVCGhtOB4CBN-155" value="" style="ellipse;whiteSpace=wrap;html=1;labelBackgroundColor=none;fontColor=#FFFFFF;fillColor=none;strokeColor=#FFFFFF;" vertex="1" parent="1">
          <mxGeometry x="-660" y="-1400" width="160" height="80" as="geometry" />
        </mxCell>
        <mxCell id="WUoqmDTYcVCGhtOB4CBN-156" value="" style="endArrow=none;html=1;fontColor=#FFFFFF;entryX=0;entryY=0.5;entryDx=0;entryDy=0;exitX=1;exitY=0.5;exitDx=0;exitDy=0;strokeColor=#FFFFFF;" edge="1" parent="1" source="WUoqmDTYcVCGhtOB4CBN-155" target="WUoqmDTYcVCGhtOB4CBN-155">
          <mxGeometry width="50" height="50" relative="1" as="geometry">
            <mxPoint x="-681.5" y="-1425" as="sourcePoint" />
            <mxPoint x="-631.5" y="-1475" as="targetPoint" />
          </mxGeometry>
        </mxCell>
        <mxCell id="WUoqmDTYcVCGhtOB4CBN-157" value="CHANNEL_MESSAGE" style="text;html=1;strokeColor=none;fillColor=none;align=center;verticalAlign=middle;whiteSpace=wrap;rounded=0;fontStyle=1;fontColor=#FFFFFF;" vertex="1" parent="1">
          <mxGeometry x="-600" y="-1385" width="40" height="20" as="geometry" />
        </mxCell>
        <mxCell id="WUoqmDTYcVCGhtOB4CBN-158" value="message_content" style="text;strokeColor=none;fillColor=none;align=center;verticalAlign=middle;spacingLeft=4;spacingRight=4;overflow=hidden;rotatable=0;points=[[0,0.5],[1,0.5]];portConstraint=eastwest;labelPosition=center;verticalLabelPosition=middle;fontStyle=0;labelBorderColor=none;labelBackgroundColor=none;fontColor=#FFFFFF;spacingBottom=0;" vertex="1" parent="1">
          <mxGeometry x="-655" y="-1360" width="150" height="26" as="geometry" />
        </mxCell>
        <mxCell id="WUoqmDTYcVCGhtOB4CBN-159" value="date" style="text;strokeColor=none;fillColor=none;align=center;verticalAlign=middle;spacingLeft=4;spacingRight=4;overflow=hidden;rotatable=0;points=[[0,0.5],[1,0.5]];portConstraint=eastwest;labelPosition=center;verticalLabelPosition=middle;fontStyle=0;labelBorderColor=none;labelBackgroundColor=none;fontColor=#FFFFFF;spacingBottom=0;" vertex="1" parent="1">
          <mxGeometry x="-655" y="-1350" width="150" height="30" as="geometry" />
        </mxCell>
        <mxCell id="WUoqmDTYcVCGhtOB4CBN-160" value="" style="edgeStyle=orthogonalEdgeStyle;rounded=0;orthogonalLoop=1;jettySize=auto;html=1;endArrow=none;endFill=0;fontColor=#FFFFFF;strokeColor=#FFFFFF;" edge="1" parent="1" source="WUoqmDTYcVCGhtOB4CBN-155" target="72YD6_MLIdH5nznkVh8s-135">
          <mxGeometry relative="1" as="geometry">
            <mxPoint x="-560" y="-1380" as="sourcePoint" />
            <mxPoint x="-700" y="-1260" as="targetPoint" />
            <Array as="points">
              <mxPoint x="-580" y="-1250" />
            </Array>
          </mxGeometry>
        </mxCell>
        <mxCell id="WUoqmDTYcVCGhtOB4CBN-161" value="" style="edgeStyle=orthogonalEdgeStyle;rounded=0;orthogonalLoop=1;jettySize=auto;html=1;endArrow=none;endFill=0;fontColor=#FFFFFF;strokeColor=#FFFFFF;" edge="1" parent="1" source="WUoqmDTYcVCGhtOB4CBN-155" target="WUoqmDTYcVCGhtOB4CBN-72">
          <mxGeometry relative="1" as="geometry">
            <mxPoint x="-607" y="-1240" as="sourcePoint" />
            <mxPoint x="-710" y="-1240" as="targetPoint" />
            <Array as="points">
              <mxPoint x="-580" y="-1610" />
            </Array>
          </mxGeometry>
        </mxCell>
        <mxCell id="WUoqmDTYcVCGhtOB4CBN-162" value="0,n" style="text;html=1;strokeColor=none;fillColor=none;align=center;verticalAlign=middle;whiteSpace=wrap;rounded=0;fontColor=#FFFFFF;" vertex="1" parent="1">
          <mxGeometry x="-720" y="-1610" width="40" height="20" as="geometry" />
        </mxCell>
        <mxCell id="WUoqmDTYcVCGhtOB4CBN-170" value="DIVISION" style="swimlane;html=1;fontStyle=1;align=center;verticalAlign=top;childLayout=stackLayout;horizontal=1;startSize=26;horizontalStack=0;resizeParent=1;resizeLast=0;collapsible=1;marginBottom=0;swimlaneFillColor=none;rounded=0;shadow=0;comic=0;labelBackgroundColor=none;strokeColor=#FFFFFF;strokeWidth=1;fillColor=none;fontFamily=Verdana;fontSize=12;fontColor=#FFFFFF;glass=0;swimlaneLine=1;" vertex="1" parent="1">
          <mxGeometry x="-1160" y="-760" width="200" height="120" as="geometry" />
        </mxCell>
        <mxCell id="WUoqmDTYcVCGhtOB4CBN-171" value="id_division" style="text;strokeColor=none;fillColor=none;align=center;verticalAlign=middle;spacingLeft=4;spacingRight=4;overflow=hidden;rotatable=0;points=[[0,0.5],[1,0.5]];portConstraint=eastwest;labelPosition=center;verticalLabelPosition=middle;fontStyle=4;labelBorderColor=none;labelBackgroundColor=none;fontColor=#FFFFFF;spacingBottom=0;" vertex="1" parent="WUoqmDTYcVCGhtOB4CBN-170">
          <mxGeometry y="26" width="200" height="26" as="geometry" />
        </mxCell>
        <mxCell id="WUoqmDTYcVCGhtOB4CBN-172" value="division_name" style="text;strokeColor=none;fillColor=none;align=center;verticalAlign=middle;spacingLeft=4;spacingRight=4;overflow=hidden;rotatable=0;points=[[0,0.5],[1,0.5]];portConstraint=eastwest;labelPosition=center;verticalLabelPosition=middle;fontStyle=0;labelBorderColor=none;labelBackgroundColor=none;fontColor=#FFFFFF;spacingBottom=0;" vertex="1" parent="WUoqmDTYcVCGhtOB4CBN-170">
          <mxGeometry y="52" width="200" height="28" as="geometry" />
        </mxCell>
        <mxCell id="WUoqmDTYcVCGhtOB4CBN-173" value="division_img_path" style="text;strokeColor=none;fillColor=none;align=center;verticalAlign=middle;spacingLeft=4;spacingRight=4;overflow=hidden;rotatable=0;points=[[0,0.5],[1,0.5]];portConstraint=eastwest;labelPosition=center;verticalLabelPosition=middle;fontStyle=0;labelBorderColor=none;labelBackgroundColor=none;fontColor=#FFFFFF;spacingBottom=0;" vertex="1" parent="WUoqmDTYcVCGhtOB4CBN-170">
          <mxGeometry y="80" width="200" height="28" as="geometry" />
        </mxCell>
        <mxCell id="WUoqmDTYcVCGhtOB4CBN-174" value="ARCHIVEMENT" style="swimlane;html=1;fontStyle=1;align=center;verticalAlign=top;childLayout=stackLayout;horizontal=1;startSize=26;horizontalStack=0;resizeParent=1;resizeLast=0;collapsible=1;marginBottom=0;swimlaneFillColor=none;rounded=0;shadow=0;comic=0;labelBackgroundColor=none;strokeColor=#FFFFFF;strokeWidth=1;fillColor=none;fontFamily=Verdana;fontSize=12;fontColor=#FFFFFF;glass=0;swimlaneLine=1;" vertex="1" parent="1">
          <mxGeometry x="-919" y="-760" width="200" height="160" as="geometry" />
        </mxCell>
        <mxCell id="WUoqmDTYcVCGhtOB4CBN-175" value="id_archivement" style="text;strokeColor=none;fillColor=none;align=center;verticalAlign=middle;spacingLeft=4;spacingRight=4;overflow=hidden;rotatable=0;points=[[0,0.5],[1,0.5]];portConstraint=eastwest;labelPosition=center;verticalLabelPosition=middle;fontStyle=4;labelBorderColor=none;labelBackgroundColor=none;fontColor=#FFFFFF;spacingBottom=0;" vertex="1" parent="WUoqmDTYcVCGhtOB4CBN-174">
          <mxGeometry y="26" width="200" height="26" as="geometry" />
        </mxCell>
        <mxCell id="WUoqmDTYcVCGhtOB4CBN-176" value="archivement_name" style="text;strokeColor=none;fillColor=none;align=center;verticalAlign=middle;spacingLeft=4;spacingRight=4;overflow=hidden;rotatable=0;points=[[0,0.5],[1,0.5]];portConstraint=eastwest;labelPosition=center;verticalLabelPosition=middle;fontStyle=0;labelBorderColor=none;labelBackgroundColor=none;fontColor=#FFFFFF;spacingBottom=0;" vertex="1" parent="WUoqmDTYcVCGhtOB4CBN-174">
          <mxGeometry y="52" width="200" height="28" as="geometry" />
        </mxCell>
        <mxCell id="WUoqmDTYcVCGhtOB4CBN-178" value="archivement_descritpion" style="text;strokeColor=none;fillColor=none;align=center;verticalAlign=middle;spacingLeft=4;spacingRight=4;overflow=hidden;rotatable=0;points=[[0,0.5],[1,0.5]];portConstraint=eastwest;labelPosition=center;verticalLabelPosition=middle;fontStyle=0;labelBorderColor=none;labelBackgroundColor=none;fontColor=#FFFFFF;spacingBottom=0;" vertex="1" parent="WUoqmDTYcVCGhtOB4CBN-174">
          <mxGeometry y="80" width="200" height="28" as="geometry" />
        </mxCell>
        <mxCell id="WUoqmDTYcVCGhtOB4CBN-179" value="archivement_img_path" style="text;strokeColor=none;fillColor=none;align=center;verticalAlign=middle;spacingLeft=4;spacingRight=4;overflow=hidden;rotatable=0;points=[[0,0.5],[1,0.5]];portConstraint=eastwest;labelPosition=center;verticalLabelPosition=middle;fontStyle=0;labelBorderColor=none;labelBackgroundColor=none;fontColor=#FFFFFF;spacingBottom=0;" vertex="1" parent="WUoqmDTYcVCGhtOB4CBN-174">
          <mxGeometry y="108" width="200" height="28" as="geometry" />
        </mxCell>
        <mxCell id="WUoqmDTYcVCGhtOB4CBN-183" value="" style="ellipse;whiteSpace=wrap;html=1;labelBackgroundColor=none;fontColor=#FFFFFF;fillColor=none;strokeColor=#FFFFFF;" vertex="1" parent="1">
          <mxGeometry x="-1140" y="-870" width="160" height="60" as="geometry" />
        </mxCell>
        <mxCell id="WUoqmDTYcVCGhtOB4CBN-184" value="" style="endArrow=none;html=1;fontColor=#FFFFFF;entryX=0;entryY=0.5;entryDx=0;entryDy=0;exitX=1;exitY=0.5;exitDx=0;exitDy=0;strokeColor=#FFFFFF;" edge="1" parent="1" source="WUoqmDTYcVCGhtOB4CBN-183" target="WUoqmDTYcVCGhtOB4CBN-183">
          <mxGeometry width="50" height="50" relative="1" as="geometry">
            <mxPoint x="-1190.5" y="-745" as="sourcePoint" />
            <mxPoint x="-1140.5" y="-795" as="targetPoint" />
          </mxGeometry>
        </mxCell>
        <mxCell id="WUoqmDTYcVCGhtOB4CBN-185" value="RANKED" style="text;html=1;strokeColor=none;fillColor=none;align=center;verticalAlign=middle;whiteSpace=wrap;rounded=0;fontStyle=1;fontColor=#FFFFFF;" vertex="1" parent="1">
          <mxGeometry x="-1080" y="-863" width="40" height="20" as="geometry" />
        </mxCell>
        <mxCell id="WUoqmDTYcVCGhtOB4CBN-186" value="" style="edgeStyle=orthogonalEdgeStyle;rounded=0;orthogonalLoop=1;jettySize=auto;html=1;endArrow=none;endFill=0;fontColor=#FFFFFF;strokeColor=#FFFFFF;" edge="1" parent="1" source="WUoqmDTYcVCGhtOB4CBN-183" target="72YD6_MLIdH5nznkVh8s-135">
          <mxGeometry relative="1" as="geometry">
            <mxPoint x="-1050" y="-970" as="sourcePoint" />
            <mxPoint x="-909" y="-940" as="targetPoint" />
            <Array as="points">
              <mxPoint x="-1060" y="-940" />
            </Array>
          </mxGeometry>
        </mxCell>
        <mxCell id="WUoqmDTYcVCGhtOB4CBN-187" value="" style="edgeStyle=orthogonalEdgeStyle;rounded=0;orthogonalLoop=1;jettySize=auto;html=1;endArrow=none;endFill=0;fontColor=#FFFFFF;strokeColor=#FFFFFF;" edge="1" parent="1" source="WUoqmDTYcVCGhtOB4CBN-183" target="WUoqmDTYcVCGhtOB4CBN-170">
          <mxGeometry relative="1" as="geometry">
            <mxPoint x="-1050" y="-890" as="sourcePoint" />
            <mxPoint x="-909" y="-930" as="targetPoint" />
            <Array as="points">
              <mxPoint x="-1010" y="-850" />
              <mxPoint x="-1010" y="-850" />
            </Array>
          </mxGeometry>
        </mxCell>
        <mxCell id="WUoqmDTYcVCGhtOB4CBN-188" value="0,1" style="text;html=1;strokeColor=none;fillColor=none;align=center;verticalAlign=middle;whiteSpace=wrap;rounded=0;fontColor=#FFFFFF;" vertex="1" parent="1">
          <mxGeometry x="-959" y="-940" width="40" height="20" as="geometry" />
        </mxCell>
        <mxCell id="WUoqmDTYcVCGhtOB4CBN-189" value="0,n" style="text;html=1;strokeColor=none;fillColor=none;align=center;verticalAlign=middle;whiteSpace=wrap;rounded=0;fontColor=#FFFFFF;" vertex="1" parent="1">
          <mxGeometry x="-1060" y="-780" width="40" height="20" as="geometry" />
        </mxCell>
        <mxCell id="WUoqmDTYcVCGhtOB4CBN-190" value="" style="ellipse;whiteSpace=wrap;html=1;labelBackgroundColor=none;fontColor=#FFFFFF;fillColor=none;strokeColor=#FFFFFF;" vertex="1" parent="1">
          <mxGeometry x="-899" y="-870" width="160" height="60" as="geometry" />
        </mxCell>
        <mxCell id="WUoqmDTYcVCGhtOB4CBN-191" value="" style="endArrow=none;html=1;fontColor=#FFFFFF;entryX=0;entryY=0.5;entryDx=0;entryDy=0;exitX=1;exitY=0.5;exitDx=0;exitDy=0;strokeColor=#FFFFFF;" edge="1" parent="1" source="WUoqmDTYcVCGhtOB4CBN-190" target="WUoqmDTYcVCGhtOB4CBN-190">
          <mxGeometry width="50" height="50" relative="1" as="geometry">
            <mxPoint x="-949.5" y="-735" as="sourcePoint" />
            <mxPoint x="-899.5" y="-785" as="targetPoint" />
          </mxGeometry>
        </mxCell>
        <mxCell id="WUoqmDTYcVCGhtOB4CBN-192" value="ARCHIVEMENT_DONE" style="text;html=1;strokeColor=none;fillColor=none;align=center;verticalAlign=middle;whiteSpace=wrap;rounded=0;fontStyle=1;fontColor=#FFFFFF;" vertex="1" parent="1">
          <mxGeometry x="-839" y="-860" width="40" height="20" as="geometry" />
        </mxCell>
        <mxCell id="WUoqmDTYcVCGhtOB4CBN-193" value="" style="edgeStyle=orthogonalEdgeStyle;rounded=0;orthogonalLoop=1;jettySize=auto;html=1;endArrow=none;endFill=0;fontColor=#FFFFFF;strokeColor=#FFFFFF;" edge="1" parent="1" source="WUoqmDTYcVCGhtOB4CBN-174" target="WUoqmDTYcVCGhtOB4CBN-190">
          <mxGeometry relative="1" as="geometry">
            <mxPoint x="-410" y="-790" as="sourcePoint" />
            <mxPoint x="-750" y="-910" as="targetPoint" />
            <Array as="points">
              <mxPoint x="-820" y="-770" />
              <mxPoint x="-820" y="-770" />
            </Array>
          </mxGeometry>
        </mxCell>
        <mxCell id="WUoqmDTYcVCGhtOB4CBN-194" value="" style="edgeStyle=orthogonalEdgeStyle;rounded=0;orthogonalLoop=1;jettySize=auto;html=1;endArrow=none;endFill=0;fontColor=#FFFFFF;strokeColor=#FFFFFF;" edge="1" parent="1" source="72YD6_MLIdH5nznkVh8s-135" target="WUoqmDTYcVCGhtOB4CBN-190">
          <mxGeometry relative="1" as="geometry">
            <mxPoint x="-810" y="-750" as="sourcePoint" />
            <mxPoint x="-810" y="-800" as="targetPoint" />
            <Array as="points">
              <mxPoint x="-820" y="-890" />
              <mxPoint x="-820" y="-890" />
            </Array>
          </mxGeometry>
        </mxCell>
        <mxCell id="WUoqmDTYcVCGhtOB4CBN-195" value="0,n" style="text;html=1;strokeColor=none;fillColor=none;align=center;verticalAlign=middle;whiteSpace=wrap;rounded=0;fontColor=#FFFFFF;" vertex="1" parent="1">
          <mxGeometry x="-860" y="-920" width="40" height="20" as="geometry" />
        </mxCell>
        <mxCell id="WUoqmDTYcVCGhtOB4CBN-196" value="0,n" style="text;html=1;strokeColor=none;fillColor=none;align=center;verticalAlign=middle;whiteSpace=wrap;rounded=0;fontColor=#FFFFFF;" vertex="1" parent="1">
          <mxGeometry x="-860" y="-780" width="40" height="20" as="geometry" />
        </mxCell>
        <mxCell id="WUoqmDTYcVCGhtOB4CBN-197" value="date" style="text;strokeColor=none;fillColor=none;align=center;verticalAlign=middle;spacingLeft=4;spacingRight=4;overflow=hidden;rotatable=0;points=[[0,0.5],[1,0.5]];portConstraint=eastwest;labelPosition=center;verticalLabelPosition=middle;fontStyle=0;labelBorderColor=none;labelBackgroundColor=none;fontColor=#FFFFFF;spacingBottom=0;" vertex="1" parent="1">
          <mxGeometry x="-894.5" y="-1360" width="150" height="30" as="geometry" />
        </mxCell>
        <mxCell id="WUoqmDTYcVCGhtOB4CBN-198" value="date" style="text;strokeColor=none;fillColor=none;align=center;verticalAlign=middle;spacingLeft=4;spacingRight=4;overflow=hidden;rotatable=0;points=[[0,0.5],[1,0.5]];portConstraint=eastwest;labelPosition=center;verticalLabelPosition=middle;fontStyle=0;labelBorderColor=none;labelBackgroundColor=none;fontColor=#FFFFFF;spacingBottom=0;" vertex="1" parent="1">
          <mxGeometry x="-894" y="-840" width="150" height="30" as="geometry" />
        </mxCell>
        <mxCell id="WUoqmDTYcVCGhtOB4CBN-207" value="0,n" style="text;html=1;strokeColor=none;fillColor=none;align=center;verticalAlign=middle;whiteSpace=wrap;rounded=0;fontColor=#FFFFFF;" vertex="1" parent="1">
          <mxGeometry x="-720" y="-940" width="40" height="20" as="geometry" />
        </mxCell>
        <mxCell id="WUoqmDTYcVCGhtOB4CBN-208" value="0,n" style="text;html=1;strokeColor=none;fillColor=none;align=center;verticalAlign=middle;whiteSpace=wrap;rounded=0;fontColor=#FFFFFF;" vertex="1" parent="1">
          <mxGeometry x="-380" y="-880" width="40" height="20" as="geometry" />
        </mxCell>
        <mxCell id="WUoqmDTYcVCGhtOB4CBN-209" value="0,n" style="text;html=1;strokeColor=none;fillColor=none;align=center;verticalAlign=middle;whiteSpace=wrap;rounded=0;fontColor=#FFFFFF;" vertex="1" parent="1">
          <mxGeometry x="-380" y="-780" width="40" height="20" as="geometry" />
        </mxCell>
      </root>
    </mxGraphModel>
  </diagram>
</mxfile>
